<?xml version="1.0" encoding="iso-8859-1"?>
<!-- Generator: Adobe Illustrator 19.1.0, SVG Export Plug-In . SVG Version: 6.00 Build 0)  -->
<svg version="1.1" id="Capa_1" xmlns="http://www.w3.org/2000/svg" xmlns:xlink="http://www.w3.org/1999/xlink" x="0px" y="0px"
	 viewBox="0 0 1125.628 1125.628" style="enable-background:new 0 0 1125.628 1125.628;" xml:space="preserve">
<g>
	<path d="M562.812,0.002C252.476,0.002,0,252.478,0,562.814s252.476,562.812,562.812,562.812
		c310.34,0,562.816-252.476,562.816-562.812S873.152,0.002,562.812,0.002z M738.951,466.446l-20.226,115.677
		c-2.041,11.672-11.988,26.268-22.104,32.437l-12.019,7.329c12.413,21.03,19.562,45.538,19.562,71.726
		c0,78.065-63.284,141.35-141.35,141.35s-141.35-63.284-141.35-141.35c0-78.065,63.284-141.35,141.35-141.35
		c11.506,0,22.677,1.408,33.385,4.002l2.997-12.558c2.75-11.525,13.46-25.691,23.798-31.479l100.871-56.48
		C734.203,449.96,740.992,454.774,738.951,466.446z M960.124,563.225c-34.11,0-100.198,0-134.308,0
		c-13.352,0-12.353-10.474-12.353-10.474c0-35.505-7.444-69.388-20.817-100.022l34.969-34.977
		c18.406-18.402,18.495-48.266,0.089-66.668c-18.402-18.41-48.063-18.423-66.465-0.013l-22.246,22.676
		c-34.558-33.904-79.476-57.882-127.476-67.324v-58.676c0-26.025-22.975-47.124-49-47.124c-26.025,0-49,21.099-49,47.124v58.677
		c-48,9.442-92.62,33.413-127.177,67.315l-21.783-22.68c-18.41-18.41-48.151-18.402-66.552-0.004
		c-18.406,18.406-18.359,48.245,0.043,66.646L333,452.628c-13.372,30.634-20.826,64.618-20.826,100.122
		c0,0,1.319,10.474-10.799,10.474c-33.661,0-100.983,0-134.645,0c-10.626,0-10.626-10.474-10.626-10.474
		c0-224.26,182.449-406.811,406.709-406.811s406.709,182.603,406.709,406.862C969.522,552.802,969.522,563.225,960.124,563.225z"/>
</g>
<g>
</g>
<g>
</g>
<g>
</g>
<g>
</g>
<g>
</g>
<g>
</g>
<g>
</g>
<g>
</g>
<g>
</g>
<g>
</g>
<g>
</g>
<g>
</g>
<g>
</g>
<g>
</g>
<g>
</g>
</svg>
