<?xml version="1.0" encoding="iso-8859-1"?>
<!-- Generator: Adobe Illustrator 19.0.0, SVG Export Plug-In . SVG Version: 6.00 Build 0)  -->
<svg version="1.1" id="Layer_1" xmlns="http://www.w3.org/2000/svg" xmlns:xlink="http://www.w3.org/1999/xlink" x="0px" y="0px"
	 viewBox="0 0 512 512" style="enable-background:new 0 0 512 512;" xml:space="preserve">
<polygon style="fill:#288FD9;" points="512,39.45 357.59,39.45 336.656,194.62 357.59,348.27 512,348.27 "/>
<rect x="203.183" y="39.45" style="fill:#8BCBF1;" width="154.414" height="308.817"/>
<path style="fill:#F7C02D;" d="M357.59,101.398l-20.934,98.647l20.934,86.276c51.065,0,92.461-41.397,92.461-92.461
	C450.052,142.794,408.656,101.398,357.59,101.398z"/>
<path style="fill:#FBE27B;" d="M265.128,193.859c0,51.065,41.397,92.461,92.461,92.461V101.398
	C306.525,101.398,265.128,142.794,265.128,193.859z"/>
<rect x="307.74" y="165.741" style="fill:#C1C1C1;" width="31.376" height="56.245"/>
<rect x="376.057" y="165.741" style="fill:#9B9B9B;" width="31.376" height="56.245"/>
<rect x="13.025" y="125.443" style="fill:#C1C1C1;" width="31.376" height="69.185"/>
<g>
	<rect x="67.735" y="125.443" style="fill:#9B9B9B;" width="31.376" height="69.185"/>
	<path style="fill:#9B9B9B;" d="M512,472.55H124.57c-46.422,0-84.19-37.767-84.19-84.189V261.423h31.376v126.938
		c0,29.121,23.692,52.813,52.814,52.813H512V472.55z"/>
</g>
<path style="fill:#DFDFDF;" d="M56.069,184.152l-20.934,50.255l20.934,58.419h15.796c22.242,0,40.273-18.031,40.273-40.273v-68.399
	H56.069V184.152z"/>
<path style="fill:#F1F1F1;" d="M0,184.152v68.399c0,22.243,18.031,40.273,40.273,40.273h15.796V184.152H0z"/>
<g>
</g>
<g>
</g>
<g>
</g>
<g>
</g>
<g>
</g>
<g>
</g>
<g>
</g>
<g>
</g>
<g>
</g>
<g>
</g>
<g>
</g>
<g>
</g>
<g>
</g>
<g>
</g>
<g>
</g>
</svg>
