<?xml version="1.0" encoding="iso-8859-1"?>
<!-- Generator: Adobe Illustrator 19.0.0, SVG Export Plug-In . SVG Version: 6.00 Build 0)  -->
<svg version="1.1" id="Layer_1" xmlns="http://www.w3.org/2000/svg" xmlns:xlink="http://www.w3.org/1999/xlink" x="0px" y="0px"
	 viewBox="0 0 392.663 392.663" style="enable-background:new 0 0 392.663 392.663;" xml:space="preserve">
<path style="fill:#56ACE0;" d="M161.81,60.089c0-22.238,14.222-37.883,34.521-37.883s34.521,15.58,34.521,37.883
	c0,24.63-16.743,47.968-34.521,47.968S161.81,84.719,161.81,60.089z"/>
<path style="fill:#FFFFFF;" d="M123.798,168.63c-0.776-7.499-0.905-14.352-0.259-17.067c1.164-1.164,7.176-5.947,29.22-11.572
	c9.115-2.392,16.549-8.404,20.945-16.485c7.046,4.008,14.675,6.335,22.562,6.335c8.016,0,15.838-2.392,22.949-6.594
	c4.396,8.081,11.895,14.287,21.075,16.679c21.721,5.754,27.604,10.408,28.768,11.572c0.711,2.65,0.517,9.568-0.259,17.067H123.798
	V168.63z"/>
<g>
	<rect x="21.851" y="190.481" style="fill:#FFC10D;" width="348.962" height="21.786"/>
	<rect x="189.996" y="234.053" style="fill:#FFC10D;" width="180.816" height="106.925"/>
</g>
<path style="fill:#194F82;" d="M381.737,168.695h-90.893c1.099-11.184,0.776-22.691-3.426-28.962
	c-3.491-5.172-11.507-12.929-41.568-20.816c-5.042-1.293-8.598-5.883-9.115-11.378c9.762-12.671,15.903-29.543,15.903-47.451
	c0-34.651-23.725-59.733-56.307-59.733s-56.307,25.083-56.307,59.733c0,18.23,6.335,35.297,16.291,48.032
	c-0.711,5.172-4.267,9.438-9.051,10.667c-30.513,7.887-38.659,15.709-42.085,20.881c-4.202,6.271-4.461,17.778-3.426,28.962H10.925
	C4.913,168.63,0,173.479,0,179.556v201.826c0,6.012,4.848,10.925,10.925,10.925s10.925-4.848,10.925-10.925V234.053h146.295v147.329
	c0,6.012,4.848,10.925,10.925,10.925c6.012,0,10.925-4.848,10.925-10.925v-18.554h180.816v18.554
	c0,6.012,4.848,10.925,10.925,10.925c6.012,0,10.925-4.848,10.925-10.925V179.62C392.598,173.543,387.749,168.695,381.737,168.695z
	 M196.331,22.206c20.299,0,34.521,15.58,34.521,37.883c0,24.63-16.743,47.968-34.521,47.968S161.81,84.719,161.81,60.089
	C161.81,37.786,176.032,22.206,196.331,22.206z M123.539,151.564c1.164-1.164,7.176-5.947,29.22-11.572
	c9.115-2.392,16.549-8.404,20.945-16.485c7.046,4.008,14.675,6.335,22.562,6.335c8.016,0,15.838-2.392,22.949-6.594
	c4.396,8.145,11.895,14.287,21.075,16.679c21.721,5.689,27.604,10.408,28.768,11.572c0.711,2.65,0.517,9.568-0.259,17.067H123.798
	C123.022,161.131,122.828,154.279,123.539,151.564z M370.812,341.042H189.996v-106.99h180.816V341.042z M370.812,212.267H21.851
	v-21.786h348.962L370.812,212.267L370.812,212.267z"/>
<g>
</g>
<g>
</g>
<g>
</g>
<g>
</g>
<g>
</g>
<g>
</g>
<g>
</g>
<g>
</g>
<g>
</g>
<g>
</g>
<g>
</g>
<g>
</g>
<g>
</g>
<g>
</g>
<g>
</g>
</svg>
